<svg width="23" height="31" viewBox="0 0 23 31" fill="none" xmlns="http://www.w3.org/2000/svg">
<path d="M15.709 0.0129164C16.1291 -0.0353781 16.6158 0.058552 17.0205 0.181862C17.9361 0.460795 18.6805 1.05769 19.1221 1.91038C19.5808 2.78441 19.6687 3.8067 19.3662 4.74632C18.9819 5.90523 18.1573 6.48806 17.1279 7.02366L17.1396 10.4035C17.8751 10.6278 18.5909 10.8818 19.2588 11.2688C20.7938 12.1586 21.8439 13.6592 22.2842 15.3664C22.7495 17.1568 22.4853 19.0597 21.5488 20.6555C20.6899 22.1019 19.3202 23.1701 17.6806 23.5793C15.5387 24.1146 13.7218 23.5352 11.8808 22.4407C11.0672 23.3107 10.2631 24.1902 9.46971 25.0793C9.82448 25.9162 9.94228 26.7946 9.70702 27.6838C9.47709 28.5531 8.86799 29.2981 8.08885 29.7385C7.21574 30.2326 6.22087 30.322 5.26366 30.0481C4.31368 29.7762 3.51507 29.1882 3.05077 28.3039C2.59376 27.4345 2.55525 26.4157 2.85155 25.4875C3.18858 24.4328 3.87482 23.7831 4.83983 23.301C5.87874 22.8946 6.73781 23.0285 7.75194 23.3938C8.59627 22.5053 9.39108 21.5714 10.2441 20.6907C9.30667 18.8521 9.0028 17.2859 9.49022 15.26C8.42894 14.7645 7.40566 14.1879 6.34373 13.6916C5.77625 14.2823 5.08213 14.6874 4.26756 14.8244C3.29625 14.9878 2.27203 14.7228 1.47362 14.1526C0.682434 13.5794 0.161956 12.7052 0.0341636 11.7365C-0.0968922 10.7974 0.150532 9.76286 0.751937 9.02171C1.37221 8.25721 2.33462 7.79539 3.30662 7.69358C4.26158 7.60057 5.21435 7.89218 5.95409 8.50315C6.89996 9.2954 7.17338 10.2806 7.28807 11.4543C8.29462 12.0714 9.44728 12.5469 10.4961 13.0979C11.8608 11.4845 12.8585 10.9757 14.8476 10.3625L14.8486 7.00803C14.4926 6.86555 14.1373 6.69211 13.8271 6.46409C13.0424 5.88353 12.5266 5.00909 12.3994 4.04124C12.2818 3.07838 12.5542 2.10828 13.1553 1.3469C13.8122 0.522844 14.6903 0.147715 15.709 0.0129164ZM20.0947 16.6994C19.8924 14.3918 17.8643 12.6806 15.5556 12.8684C13.2266 13.0581 11.497 15.1072 11.7012 17.4348C11.9053 19.7633 13.9653 21.4805 16.292 21.2619C18.598 21.0446 20.2969 19.0067 20.0947 16.6994Z" fill="#764191"/>
</svg>
