<svg aria-hidden="true" style="position: absolute; width: 0; height: 0; overflow: hidden;" version="1.1" xmlns="http://www.w3.org/2000/svg" xmlns:xlink="http://www.w3.org/1999/xlink">
<defs>
<symbol id="icon-caret-right" viewBox="0 0 32 32">
<path d="M12 25.333l10.667-9.333-10.667-9.333v18.667z"></path>
</symbol>
<symbol id="icon-chevron-down" viewBox="0 0 32 32">
<path d="M21.724 11.057l-5.724 5.724-5.724-5.724-1.885 1.885 7.609 7.609 7.609-7.609-1.885-1.885z"></path>
</symbol>
<symbol id="icon-chevron-up" viewBox="0 0 32 32">
<path d="M8.391 19.057l1.885 1.885 5.724-5.724 5.724 5.724 1.885-1.885-7.609-7.609-7.609 7.609z"></path>
</symbol>
<symbol id="icon-circle" viewBox="0 0 32 32">
<path d="M16 2.667c-7.352 0-13.333 5.981-13.333 13.333 0.001 7.353 5.983 13.335 13.333 13.335 7.352 0 13.333-5.981 13.335-13.335 0-7.352-5.981-13.333-13.335-13.333zM16 26.668c-5.88 0-10.665-4.785-10.667-10.668 0-5.881 4.785-10.667 10.667-10.667 5.883 0 10.668 4.785 10.668 10.667-0.001 5.883-4.787 10.668-10.668 10.668z"></path>
</symbol>
<symbol id="icon-down-arrow-alt" viewBox="0 0 32 32">
<path d="M24.943 16.943l-1.885-1.885-5.724 5.724v-12.781h-2.667v12.781l-5.724-5.724-1.885 1.885 8.943 8.943 8.943-8.943z"></path>
</symbol>
<symbol id="icon-error-circle" viewBox="0 0 32 32">
<path d="M15.938 2.667c-7.317 0-13.271 5.981-13.271 13.333s5.981 13.333 13.333 13.333c7.352 0 13.333-5.981 13.333-13.333s-6.009-13.333-13.396-13.333zM16.001 26.667c-5.881 0-10.667-4.785-10.667-10.667s4.756-10.667 10.604-10.667c5.917 0 10.729 4.785 10.729 10.667s-4.785 10.667-10.667 10.667z"></path>
<path d="M14.667 9.333h2.667v9.333h-2.667v-9.333zM14.667 20h2.667v2.667h-2.667v-2.667z"></path>
</symbol>
<symbol id="icon-facebook" viewBox="0 0 32 32">
<path d="M29.333 16.405c0-7.409-5.969-13.415-13.333-13.415s-13.333 6.006-13.333 13.415c0 6.696 4.876 12.245 11.25 13.252v-9.374h-3.385v-3.878h3.385v-2.955c0-3.362 1.991-5.219 5.036-5.219 1.459 0 2.985 0.262 2.985 0.262v3.301h-1.681c-1.656 0-2.173 1.034-2.173 2.095v2.516h3.698l-0.591 3.878h-3.107v9.374c6.374-1.006 11.25-6.556 11.25-13.252z"></path>
</symbol>
<symbol id="icon-instagram" viewBox="0 0 32 32">
<path d="M15.998 6.161c3.206 0 3.585 0.014 4.846 0.071 1.172 0.052 1.804 0.248 2.226 0.412 0.558 0.216 0.961 0.478 1.378 0.895 0.422 0.422 0.679 0.82 0.9 1.378 0.164 0.422 0.361 1.059 0.412 2.226 0.056 1.266 0.071 1.645 0.071 4.847s-0.014 3.585-0.071 4.847c-0.052 1.172-0.248 1.804-0.412 2.226-0.216 0.558-0.478 0.961-0.895 1.378-0.422 0.422-0.82 0.679-1.378 0.9-0.422 0.164-1.060 0.361-2.226 0.412-1.266 0.056-1.645 0.070-4.847 0.070s-3.585-0.014-4.847-0.070c-1.172-0.052-1.804-0.248-2.226-0.412-0.558-0.216-0.961-0.478-1.378-0.895-0.422-0.422-0.679-0.82-0.9-1.378-0.164-0.422-0.361-1.060-0.412-2.226-0.056-1.266-0.071-1.645-0.071-4.847s0.014-3.585 0.071-4.847c0.052-1.172 0.248-1.804 0.412-2.226 0.216-0.558 0.478-0.961 0.895-1.378 0.422-0.422 0.82-0.679 1.378-0.9 0.422-0.164 1.059-0.361 2.226-0.412 1.261-0.056 1.641-0.071 4.847-0.071h0.001zM15.998 4.001c-3.258 0-3.665 0.014-4.945 0.071-1.275 0.056-2.151 0.262-2.91 0.558-0.792 0.309-1.462 0.717-2.127 1.387-0.67 0.666-1.078 1.336-1.387 2.123-0.295 0.764-0.502 1.636-0.558 2.91-0.056 1.285-0.071 1.692-0.071 4.949s0.014 3.665 0.071 4.945c0.056 1.275 0.262 2.151 0.558 2.91 0.31 0.792 0.717 1.462 1.387 2.128 0.665 0.665 1.336 1.078 2.123 1.383 0.764 0.295 1.636 0.502 2.91 0.558 1.279 0.056 1.687 0.070 4.945 0.070s3.666-0.014 4.945-0.070c1.275-0.056 2.152-0.262 2.91-0.558 0.787-0.304 1.458-0.717 2.123-1.383s1.078-1.336 1.383-2.123c0.295-0.764 0.502-1.636 0.558-2.91 0.056-1.279 0.070-1.687 0.070-4.945s-0.014-3.665-0.070-4.945c-0.056-1.275-0.262-2.151-0.558-2.91-0.295-0.797-0.703-1.467-1.373-2.133-0.665-0.665-1.336-1.078-2.123-1.383-0.764-0.295-1.636-0.502-2.91-0.558-1.284-0.061-1.692-0.075-4.949-0.075l-0.001 0.001z"></path>
<path d="M15.998 9.836c-3.402 0-6.163 2.76-6.163 6.163s2.76 6.163 6.163 6.163c3.403 0 6.163-2.76 6.163-6.163s-2.76-6.163-6.163-6.163zM15.998 19.997c-2.208 0-3.998-1.79-3.998-3.998s1.79-3.998 3.998-3.998c2.208 0 3.998 1.79 3.998 3.998s-1.79 3.998-3.998 3.998z"></path>
<path d="M23.843 9.592c0 0.795-0.644 1.439-1.439 1.439s-1.439-0.644-1.439-1.439c0-0.795 0.644-1.439 1.439-1.439s1.439 0.644 1.439 1.439z"></path>
</symbol>
<symbol id="icon-left-arrow-alt" viewBox="0 0 32 32">
<path d="M16.943 23.057l-5.724-5.724h12.781v-2.667h-12.781l5.724-5.724-1.885-1.885-8.943 8.943 8.943 8.943 1.885-1.885z"></path>
</symbol>
<symbol id="icon-menu" viewBox="0 0 32 32">
<path d="M5.333 8h21.333v2.667h-21.333v-2.667zM10.667 14.667h16v2.667h-16v-2.667zM17.333 21.333h9.333v2.667h-9.333v-2.667z"></path>
</symbol>
<symbol id="icon-right-arrow" viewBox="0 0 32 32">
<path d="M7.381 29.181c0.216 0.112 0.458 0.164 0.701 0.149s0.477-0.096 0.677-0.234l17.333-12c0.177-0.123 0.322-0.287 0.422-0.477s0.152-0.403 0.152-0.619-0.052-0.428-0.152-0.619c-0.1-0.191-0.245-0.355-0.422-0.477l-17.333-12c-0.2-0.139-0.434-0.221-0.677-0.237s-0.486 0.036-0.702 0.149c-0.216 0.113-0.396 0.283-0.522 0.492s-0.192 0.448-0.191 0.691v24c-0 0.243 0.067 0.482 0.192 0.69s0.307 0.378 0.522 0.491zM9.333 6.545l13.657 9.455-13.657 9.455v-18.909z"></path>
</symbol>
<symbol id="icon-right-arrow-alt" viewBox="0 0 32 32">
<path d="M15.057 23.057l1.885 1.885 8.943-8.943-8.943-8.943-1.885 1.885 5.724 5.724h-12.781v2.667h12.781l-5.724 5.724z"></path>
</symbol>
<symbol id="icon-search" viewBox="0 0 32 32">
<path d="M13.333 24c2.367-0.001 4.665-0.793 6.529-2.251l5.861 5.861 1.885-1.885-5.861-5.861c1.459-1.864 2.251-4.163 2.252-6.531 0-5.881-4.785-10.667-10.667-10.667s-10.667 4.785-10.667 10.667c0 5.881 4.785 10.667 10.667 10.667zM13.333 5.333c4.412 0 8 3.588 8 8s-3.588 8-8 8c-4.412 0-8-3.588-8-8s3.588-8 8-8z"></path>
</symbol>
<symbol id="icon-star" viewBox="0 0 32 32">
<path d="M8.688 19.097l-1.987 8.603c-0.062 0.261-0.043 0.533 0.053 0.783s0.265 0.465 0.485 0.617c0.22 0.152 0.481 0.235 0.749 0.236s0.53-0.078 0.752-0.227l7.26-4.84 7.26 4.84c0.227 0.151 0.495 0.228 0.768 0.222s0.537-0.095 0.757-0.256c0.22-0.161 0.386-0.385 0.475-0.642s0.097-0.536 0.023-0.799l-2.439-8.533 6.048-5.443c0.194-0.174 0.332-0.402 0.398-0.654s0.056-0.518-0.027-0.765-0.238-0.464-0.444-0.624c-0.206-0.16-0.454-0.256-0.714-0.277l-7.601-0.605-3.289-7.281c-0.105-0.234-0.275-0.434-0.491-0.573s-0.467-0.214-0.724-0.214c-0.257 0-0.508 0.074-0.724 0.214s-0.386 0.339-0.491 0.573l-3.289 7.281-7.601 0.604c-0.255 0.020-0.5 0.114-0.703 0.269s-0.358 0.366-0.445 0.607c-0.087 0.241-0.103 0.502-0.046 0.752s0.185 0.478 0.369 0.656l5.619 5.476zM12.492 13.329c0.238-0.019 0.467-0.101 0.662-0.239s0.35-0.325 0.448-0.543l2.399-5.308 2.399 5.308c0.098 0.218 0.252 0.405 0.448 0.543s0.424 0.22 0.662 0.239l5.296 0.42-4.361 3.925c-0.379 0.341-0.529 0.867-0.391 1.357l1.671 5.847-4.981-3.321c-0.219-0.147-0.476-0.225-0.739-0.225s-0.521 0.078-0.739 0.225l-5.205 3.471 1.4-6.061c0.051-0.223 0.044-0.455-0.020-0.675s-0.184-0.419-0.348-0.579l-4.051-3.949 5.453-0.435z"></path>
</symbol>
<symbol id="icon-close" viewBox="0 0 32 32">
<path d="M21.589 8.459l-5.657 5.656-5.656-5.656-1.885 1.885 5.656 5.656-5.656 5.656 1.885 1.885 5.656-5.656 5.657 5.656 1.885-1.885-5.656-5.656 5.656-5.656-1.885-1.885z"></path>
</symbol>
<symbol id="icon-youtube" viewBox="0 0 32 32">
<path d="M28.791 9.604c-0.152-0.564-0.449-1.077-0.861-1.49s-0.925-0.711-1.488-0.864c-2.088-0.573-10.441-0.583-10.441-0.583s-8.352-0.009-10.441 0.539c-0.563 0.16-1.075 0.462-1.487 0.878s-0.711 0.929-0.867 1.493c-0.551 2.088-0.556 6.419-0.556 6.419s-0.005 4.352 0.541 6.419c0.307 1.143 1.207 2.045 2.351 2.353 2.109 0.573 10.44 0.583 10.44 0.583s8.353 0.009 10.441-0.537c0.563-0.153 1.077-0.45 1.49-0.862s0.712-0.925 0.866-1.488c0.552-2.087 0.556-6.416 0.556-6.416s0.027-4.353-0.543-6.441zM13.328 20.007l0.007-8 6.943 4.007-6.949 3.993z"></path>
</symbol>
<symbol id="icon-company-logo" viewBox="0 0 75 32">
<path d="M13.735 6.675c0.264-0.030 0.569 0.029 0.823 0.106 0.575 0.175 1.042 0.55 1.319 1.085 0.288 0.548 0.343 1.19 0.153 1.779-0.241 0.727-0.758 1.092-1.404 1.428l0.007 2.121c0.461 0.141 0.911 0.301 1.33 0.543 0.963 0.558 1.622 1.5 1.898 2.571 0.292 1.123 0.126 2.317-0.462 3.318-0.539 0.908-1.398 1.578-2.427 1.835-1.344 0.336-2.483-0.028-3.638-0.715-0.511 0.546-1.015 1.098-1.513 1.656 0.223 0.525 0.296 1.076 0.148 1.634-0.144 0.546-0.526 1.013-1.015 1.289-0.548 0.31-1.172 0.367-1.773 0.195-0.596-0.171-1.097-0.54-1.389-1.095-0.287-0.546-0.311-1.185-0.125-1.767 0.212-0.662 0.643-1.070 1.248-1.372 0.652-0.255 1.19-0.171 1.827 0.058 0.53-0.558 1.029-1.143 1.564-1.695-0.588-1.154-0.779-2.136-0.473-3.407-0.666-0.311-1.309-0.673-1.975-0.985-0.356 0.371-0.791 0.625-1.302 0.711-0.61 0.103-1.253-0.064-1.754-0.422-0.496-0.36-0.823-0.908-0.903-1.515-0.082-0.589 0.073-1.239 0.45-1.704 0.389-0.48 0.993-0.769 1.603-0.833 0.599-0.058 1.198 0.124 1.662 0.508 0.593 0.497 0.764 1.115 0.836 1.851 0.632 0.387 1.355 0.686 2.013 1.032 0.856-1.012 1.482-1.332 2.73-1.716l0.001-2.105c-0.223-0.089-0.447-0.198-0.642-0.341-0.492-0.364-0.815-0.913-0.895-1.52-0.074-0.604 0.097-1.213 0.474-1.691 0.412-0.517 0.963-0.752 1.602-0.837zM16.488 17.145c-0.127-1.448-1.4-2.522-2.848-2.404-1.461 0.119-2.546 1.405-2.418 2.865s1.421 2.539 2.88 2.401c1.447-0.136 2.513-1.415 2.386-2.863z"></path>
<path d="M65.83 13.857c0.43 0.001 0.861 0.007 1.291 0.018l-0.002 2.275c0.331-0.258 0.693-0.45 1.112-0.512 0.567-0.086 1.146 0.061 1.603 0.407 0.552 0.418 0.842 1.121 0.925 1.792 0.107 0.852-0.094 1.671-0.619 2.35-0.349 0.337-0.768 0.572-1.251 0.651-0.708 0.116-1.269-0.131-1.822-0.544l-0.002 0.497-1.235-0.002-0.001-6.932zM68.042 16.838c-0.383 0.128-0.651 0.31-0.838 0.68-0.208 0.41-0.222 0.916-0.060 1.344 0.124 0.327 0.356 0.61 0.679 0.756 0.235 0.106 0.456 0.11 0.708 0.094 0.4-0.151 0.67-0.346 0.851-0.747 0.189-0.419 0.186-0.924 0.007-1.346-0.138-0.324-0.384-0.586-0.715-0.714-0.207-0.080-0.415-0.091-0.633-0.067z"></path>
<path d="M28.852 13.844c0.757 2.334 1.727 4.604 2.465 6.945l-1.396 0.002c-0.164-0.5-0.321-1.065-0.571-1.527-0.163-0.070-0.356-0.046-0.531-0.044-0.673 0.007-1.347 0.004-2.020-0.007-0.211 0.516-0.382 1.047-0.549 1.578l-1.422-0.001c0.742-2.33 1.627-4.63 2.429-6.942 0.53 0.012 1.063-0.001 1.594-0.003zM28.056 15.569c-0.294 0.835-0.568 1.682-0.89 2.507l1.022-0.001 0.794-0.009c-0.112-0.315-0.76-2.358-0.927-2.498z"></path>
<path d="M58.279 13.858l1.335 0.008c-0.018 1.609-0.004 3.22-0.004 4.83-0 0.664 0.067 1.39-0.008 2.045l-0.073 0.050h-1.251l-0.003-2.971c-1-0.028-2.008-0.003-3.008-0.002l0 2.975-1.343-0.003 0.005-6.93 1.338 0.003 0.001 2.834h3.013l-0.002-2.838z"></path>
<path d="M60.417 15.779c0.443 0.013 0.887 0.008 1.33 0.010-0.005 0.708-0.117 2.665 0.054 3.25 0.068 0.231 0.203 0.442 0.421 0.555 0.329 0.169 0.663 0.071 0.99-0.044 0.144-0.162 0.269-0.313 0.341-0.522 0.234-0.683 0.109-2.435 0.105-3.248 0.422 0.011 0.845 0.002 1.267 0-0.010 0.486-0.002 0.975-0.002 1.462l0.006 3.546c-0.415 0.006-0.829 0.003-1.244-0.009l-0.038-0.045c0.006-0.105 0.008-0.191-0.011-0.296-0.389 0.168-0.735 0.424-1.177 0.433-0.513 0.010-1.069-0.149-1.437-0.518-0.279-0.279-0.449-0.654-0.537-1.035-0.188-0.819-0.077-2.633-0.069-3.54z"></path>
<path d="M42.476 15.64c0.662-0.052 1.352-0.005 1.887 0.441 0.375 0.312 0.496 0.687 0.537 1.153l-1.196-0.001c-0.069-0.128-0.138-0.276-0.246-0.376-0.172-0.159-0.422-0.242-0.655-0.229-0.181 0.010-0.413 0.082-0.526 0.235-0.068 0.093-0.106 0.189-0.080 0.306 0.136 0.613 1.696 0.538 2.192 0.862 0.316 0.207 0.558 0.578 0.629 0.948 0.070 0.378-0.020 0.769-0.248 1.079-0.381 0.526-0.968 0.714-1.58 0.808-0.566 0.034-1.222-0.118-1.675-0.462-0.425-0.323-0.578-0.72-0.635-1.231 0.403 0.001 0.806-0.003 1.209-0.011 0.024 0.076 0.050 0.149 0.088 0.219 0.175 0.324 0.526 0.396 0.851 0.491 0.215-0.049 0.505-0.104 0.657-0.278 0.092-0.105 0.124-0.287 0.085-0.42-0.149-0.513-1.643-0.573-2.162-0.892-0.307-0.189-0.533-0.465-0.614-0.82-0.074-0.322-0.046-0.684 0.135-0.966 0.327-0.511 0.778-0.72 1.347-0.856z"></path>
<path d="M50.526 15.638c0.377-0.030 0.746-0.028 1.113 0.071 0.424 0.115 0.874 0.351 1.088 0.753 0.103 0.192 0.182 0.538 0.113 0.752-0.343 0.074-0.763 0.024-1.115 0.020-0.052-0.175-0.096-0.309-0.238-0.43-0.179-0.15-0.413-0.221-0.646-0.196-0.182 0.019-0.416 0.108-0.518 0.271-0.061 0.097-0.086 0.197-0.047 0.309 0.22 0.649 1.541 0.495 2.055 0.788 0.327 0.187 0.601 0.516 0.693 0.884 0.1 0.395 0.034 0.834-0.194 1.174-0.34 0.507-0.881 0.698-1.451 0.809-0.56 0.069-1.209-0.050-1.677-0.373-0.481-0.331-0.625-0.747-0.733-1.29l1.199-0.009c0.073 0.183 0.139 0.327 0.295 0.454 0.207 0.17 0.453 0.247 0.72 0.211 0.207-0.028 0.411-0.123 0.535-0.296 0.081-0.114 0.121-0.252 0.083-0.39-0.15-0.534-1.474-0.5-2-0.783-0.355-0.192-0.636-0.51-0.749-0.9-0.096-0.331-0.056-0.675 0.119-0.972 0.29-0.492 0.822-0.733 1.356-0.856z"></path>
<path d="M35.762 14.403c0.398 0.014 0.799 0.005 1.198 0.007-0.004 0.45 0.002 0.899 0.020 1.349l1.182 0.001-0.003 1.030-1.125-0c0 0.648-0.148 2.32 0.15 2.821 0.232 0.183 0.696 0.115 0.978 0.111l-0.004 0.853c0.003 0.088 0.002 0.132-0.043 0.209-0.157 0.075-0.319 0.092-0.492 0.094-0.457 0.004-1.088-0.079-1.417-0.421-0.66-0.687-0.449-2.709-0.446-3.668l-0.762 0.001 0.002-1.032 0.759 0.005 0.004-1.359z"></path>
<path d="M46.034 14.398l1.175 0.007c-0.009 0.45 0.010 0.903 0.018 1.353l1.201-0.002-0.002 1.035-1.13-0.001c0.014 0.617-0.137 2.34 0.142 2.807 0.3 0.179 0.677 0.131 1.014 0.131-0.004 0.297 0.002 0.595 0.003 0.893l-0.014 0.113c-0.116 0.123-0.295 0.118-0.454 0.122-0.483 0.012-1.15-0.065-1.5-0.431-0.653-0.684-0.45-2.678-0.444-3.634l-0.804 0c-0.010-0.343-0.006-0.686-0.009-1.029l0.801 0.004 0.002-1.367z"></path>
<path d="M20.675 13.628c0.062-0.003 0.122-0.004 0.183 0.005 0.192 0.028 0.381 0.121 0.487 0.289 0.112 0.179 0.128 0.417 0.143 0.625 0.076 1.026 0.020 2.094 0.019 3.123-0 0.841 0.093 1.981-0.063 2.791-0.049 0.255-0.218 0.376-0.42 0.514-0.077 0.009-0.158 0.020-0.235 0.016-0.173-0.010-0.338-0.087-0.45-0.219-0.111-0.131-0.108-0.394-0.118-0.558-0.071-1.18-0.011-2.398-0.010-3.582 0.001-0.673-0.092-1.961 0.050-2.561 0.051-0.215 0.244-0.327 0.413-0.442z"></path>
<path d="M34.304 15.741l0.169-0.002c0.2 0.224 0.101 0.933 0.094 1.227-0.423-0.004-0.823-0.021-1.154 0.286-0.622 0.577-0.412 2.69-0.418 3.538-0.333-0.003-0.983 0.119-1.237-0.093l-0.013-0.21c0.006-1.572-0.033-3.142-0.023-4.713 0.403 0.013 0.808 0.004 1.212 0.002l-0.014 0.694c0.075-0.107 0.149-0.223 0.236-0.321 0.306-0.345 0.721-0.376 1.149-0.407z"></path>
<path d="M38.895 15.762l1.268 0.001 0.003 5.030-1.282-0.002 0.012-5.029z"></path>
<path d="M18.904 15.276c0.208 0.038 0.392 0.117 0.514 0.297 0.187 0.279 0.192 3.012 0.098 3.402-0.051 0.213-0.236 0.317-0.411 0.42-0.2-0.012-0.464-0.030-0.597-0.203-0.199-0.258-0.183-3.163-0.069-3.527 0.066-0.212 0.283-0.301 0.465-0.389z"></path>
<path d="M39.446 13.69c0.377-0.044 0.721 0.219 0.776 0.594s-0.198 0.726-0.571 0.793c-0.252 0.045-0.508-0.051-0.668-0.25s-0.2-0.469-0.104-0.706c0.096-0.237 0.314-0.402 0.567-0.432z"></path>
</symbol>
<symbol id="icon-logo-icon" viewBox="0 0 32 32">
<path d="M17.501 3.14c0.384-0.041 0.83 0.039 1.2 0.144 0.838 0.238 1.518 0.747 1.922 1.474 0.42 0.745 0.5 1.617 0.223 2.417-0.352 0.988-1.105 1.484-2.047 1.94l0.011 2.881c0.673 0.191 1.328 0.407 1.939 0.737 1.404 0.758 2.364 2.038 2.767 3.493 0.426 1.526 0.184 3.148-0.673 4.508-0.786 1.233-2.039 2.144-3.539 2.493-1.959 0.456-3.621-0.038-5.305-0.971-0.744 0.742-1.48 1.492-2.206 2.25 0.325 0.713 0.431 1.462 0.216 2.22-0.21 0.741-0.768 1.376-1.48 1.751-0.799 0.421-1.708 0.498-2.584 0.264-0.869-0.232-1.6-0.733-2.024-1.487-0.418-0.741-0.453-1.61-0.182-2.401 0.308-0.899 0.936-1.453 1.819-1.864 0.95-0.346 1.736-0.232 2.664 0.079 0.772-0.757 1.5-1.553 2.28-2.304-0.858-1.567-1.136-2.902-0.69-4.629-0.971-0.422-1.907-0.914-2.878-1.337-0.519 0.504-1.154 0.849-1.899 0.966-0.889 0.139-1.826-0.087-2.556-0.573-0.724-0.489-1.2-1.233-1.317-2.059-0.12-0.8 0.106-1.683 0.656-2.314 0.567-0.652 1.448-1.045 2.337-1.131 0.874-0.079 1.745 0.169 2.422 0.69 0.865 0.675 1.115 1.514 1.22 2.515 0.921 0.526 1.976 0.932 2.935 1.401 1.248-1.375 2.161-1.809 3.98-2.332l0.001-2.859c-0.326-0.121-0.651-0.27-0.935-0.464-0.718-0.495-1.189-1.24-1.306-2.065-0.108-0.821 0.141-1.648 0.691-2.297 0.601-0.702 1.404-1.022 2.336-1.137zM21.512 17.362c-0.185-1.967-2.040-3.425-4.152-3.265-2.131 0.162-3.713 1.908-3.526 3.892s2.072 3.448 4.2 3.262c2.11-0.185 3.663-1.922 3.478-3.889z"></path>
<path d="M27.617 12.586c0.090-0.004 0.178-0.005 0.267 0.007 0.28 0.038 0.556 0.164 0.71 0.393 0.164 0.243 0.186 0.567 0.209 0.849 0.111 1.394 0.029 2.844 0.028 4.243-0 1.142 0.136 2.691-0.092 3.791-0.072 0.346-0.318 0.511-0.612 0.698-0.112 0.013-0.23 0.027-0.343 0.021-0.253-0.013-0.492-0.118-0.656-0.298-0.162-0.178-0.157-0.535-0.171-0.759-0.103-1.603-0.016-3.258-0.014-4.866 0.001-0.914-0.134-2.663 0.072-3.479 0.074-0.292 0.356-0.445 0.603-0.6z"></path>
<path d="M25.036 14.825c0.303 0.052 0.572 0.158 0.749 0.404 0.273 0.379 0.28 4.091 0.143 4.621-0.075 0.29-0.344 0.431-0.599 0.57-0.292-0.016-0.676-0.040-0.871-0.276-0.29-0.351-0.266-4.296-0.101-4.791 0.096-0.287 0.413-0.409 0.678-0.528z"></path>
</symbol>
</defs>
</svg>
